Coordinates
version=1
nRows=17
nColumns=27
inDegrees=yes

Units are S.I. units (second, meters, Newtons, ...)
If the header above contains a line with 'inDegrees', this indicates whether rotational values are in degrees (yes) or radians (no).

endheader
time	pelvis_rotation	pelvis_tilt	pelvis_list	pelvis_tx	pelvis_ty	pelvis_tz	hip_flexion_r	hip_adduction_r	hip_rotation_r	knee_angle_r	knee_rotation_r	knee_adduction_r	knee_angle_r_beta	ankle_angle_r	subtalar_angle_r	mtp_angle_r	hip_flexion_l	hip_adduction_l	hip_rotation_l	knee_angle_l	knee_rotation_l	knee_adduction_l	knee_angle_l_beta	ankle_angle_l	subtalar_angle_l	mtp_angle_l
      3.25500000	     -0.85262269	    -28.23996327	      3.60117794	      0.07524450	      0.81817246	     -1.17370439	     51.10291891	    -31.71511259	    -24.57387708	     31.91188097	     -0.99927571	      0.40990978	      0.55696739	     -0.34278156	     15.35605555	      0.00000000	     47.78238452	    -22.33530205	    -15.67897679	     25.73390842	     -0.75351828	      5.67212850	      0.44914143	     -2.71730458	     17.97232254	      0.00000000
      3.26000000	     -1.21913780	    -29.27777110	      4.19996079	      0.07228644	      0.81659881	     -1.17399076	     53.64117394	    -32.04088174	    -22.45960333	     32.97984319	     -0.88016074	     -0.04203386	      0.57560685	     -0.18993016	     15.25802706	      0.00000000	     48.99710098	    -22.23653367	    -16.17985161	     26.39137060	     -0.66143033	      5.72099941	      0.46061631	     -2.56502634	     17.86574040	      0.00000000
      3.26500000	     -1.36491318	    -29.30815828	      4.78220032	      0.07159762	      0.81562781	     -1.17422296	     54.56503551	    -32.53819064	    -21.58781015	     33.68794020	     -0.85932442	      0.17589038	      0.58796547	      0.00999378	     15.19105835	      0.00000000	     48.92029143	    -21.96780473	    -17.07555702	     26.57720198	     -0.67074832	      5.19775779	      0.46385968	     -2.51058188	     17.57584138	      0.00000000
      3.27000000	     -0.95793849	    -29.35729065	      4.27958994	      0.07122339	      0.81501962	     -1.17376490	     54.17117985	    -32.47024818	    -22.79950141	     33.79229844	     -0.87372994	      0.68250397	      0.58978687	      0.05610554	     14.88865820	      0.00000000	     49.70346912	    -22.34528098	    -16.26985122	     27.12304132	     -0.61128989	      4.92333143	      0.47338637	     -2.36156567	     17.50639124	      0.00000000
      3.27500000	     -0.90198698	    -31.09469124	      4.15672019	      0.06716352	      0.81311772	     -1.17348523	     56.82569091	    -32.35310859	    -21.59902097	     34.75300606	     -0.71825053	      0.07012859	      0.60655438	      0.18101938	     14.70327131	      0.00000000	     52.46930240	    -22.75481520	    -15.31311381	     28.32431594	     -0.33668175	      4.95283560	      0.49435257	     -2.06472647	     17.02699380	      0.00000000
      3.28000000	     -0.83385541	    -29.95633794	      4.82137994	      0.06879067	      0.81281294	     -1.17386384	     55.97629266	    -33.15338536	    -21.79403349	     35.03596518	     -0.70853763	      0.86707853	      0.61149295	      0.36295166	     14.68579540	      0.00000000	     50.88020523	    -22.18773146	    -16.68085265	     27.99800419	     -0.63217491	      4.29361533	      0.48865736	     -2.15454656	     17.14798629	      0.00000000
      3.28500000	     -0.45499489	    -30.05277570	      4.69133363	      0.06813613	      0.81192918	     -1.17367046	     56.00444334	    -33.38918470	    -22.42498221	     35.37289765	     -0.66786223	      1.22672445	      0.61737353	      0.49153319	     14.54974944	      0.00000000	     51.56057529	    -22.25539318	    -16.19597259	     28.46929359	     -0.62249783	      3.97462170	      0.49688291	     -2.02809087	     16.94657958	      0.00000000
      3.29000000	     -0.68254064	    -30.69363908	      5.02992014	      0.06610347	      0.81046219	     -1.17370538	     57.68963760	    -33.56378384	    -21.01132817	     36.17084871	     -0.50685546	      0.97317324	      0.63130040	      0.64160923	     14.42893675	      0.00000000	     52.42951365	    -22.32167334	    -16.65384373	     29.04485303	     -0.59176016	      3.75749890	      0.50692832	     -1.87767965	     16.85300946	      0.00000000
      3.29500000	     -0.64103534	    -30.68646559	      5.21398941	      0.06540279	      0.80939795	     -1.17371391	     58.13256377	    -33.85317652	    -20.79881721	     36.67617048	     -0.48686038	      1.19420120	      0.64011993	      0.75985633	     14.40265102	      0.00000000	     52.67642831	    -22.30093139	    -16.96226083	     29.44986735	     -0.65109120	      3.32959794	      0.51399715	     -1.73304923	     16.72821160	      0.00000000
      3.30000000	     -0.03835694	    -30.47006674	      4.33086789	      0.06568789	      0.80898272	     -1.17305865	     56.84268331	    -33.71213347	    -23.01801799	     36.53098307	     -0.54500053	      1.90522588	      0.63758593	      0.82406756	     14.11803089	      0.00000000	     53.39840554	    -22.78524475	    -15.70892032	     29.95339794	     -0.60072398	      2.88296312	      0.52278542	     -1.58789608	     16.52760525	      0.00000000
      3.30500000	     -0.14492625	    -30.83445758	      4.86119565	      0.06417510	      0.80754661	     -1.17328577	     58.22970059	    -34.14716692	    -21.77415696	     37.32922240	     -0.38684354	      1.83237901	      0.65151784	      1.00303836	     14.04450915	      0.00000000	     53.88310082	    -22.61587707	    -16.34198624	     30.39067138	     -0.65502708	      2.56566976	      0.53041728	     -1.48141517	     16.38851987	      0.00000000
      3.31000000	     -0.22583943	    -30.63581667	      4.72973731	      0.06396165	      0.80672145	     -1.17308465	     58.16690964	    -34.15784170	    -21.89750781	     37.60653407	     -0.37432010	      2.14313110	      0.65635784	      1.09761304	     13.88460868	      0.00000000	     53.91910450	    -22.88268068	    -16.63219186	     30.75016240	     -0.67056026	      2.00980472	      0.53669158	     -1.33995427	     16.25090749	      0.00000000
      3.31500000	      0.20013640	    -31.36506804	      4.88686331	      0.06195719	      0.80517043	     -1.17318282	     59.35763375	    -34.58755078	    -21.63462485	     38.30413378	     -0.19886801	      2.10061100	      0.66853325	      1.25841337	     13.76497213	      0.00000000	     55.37824588	    -22.75190583	    -15.96251584	     31.44458733	     -0.66076420	      2.07274321	      0.54881158	     -1.20824173	     16.18978172	      0.00000000
      3.32000000	     -0.02727691	    -30.78881705	      4.66604808	      0.06255080	      0.80462823	     -1.17293704	     58.76223637	    -34.49041118	    -22.01969841	     38.41207916	     -0.26801009	      2.62407431	      0.67041725	      1.31005592	     13.57220668	      0.00000000	     54.83804654	    -23.13860665	    -16.59025978	     31.65087290	     -0.66627167	      1.27172114	      0.55241194	     -1.03598306	     16.00244242	      0.00000000
      3.32500000	      0.03737240	    -30.81113708	      4.66763167	      0.06194729	      0.80358803	     -1.17290995	     59.03044868	    -34.67182346	    -22.01923989	     38.80878827	     -0.20919032	      2.86365162	      0.67734113	      1.42472625	     13.42286850	      0.00000000	     55.18656933	    -23.25893679	    -16.68065945	     32.07105636	     -0.67251254	      0.88647147	      0.55974553	     -0.89427265	     15.90916040	      0.00000000
      3.33000000	     -0.61791647	    -32.75558114	      4.11265547	      0.05721989	      0.80122277	     -1.17226647	     62.13754613	    -33.78236826	    -20.04134304	     39.68670855	      0.06595247	      2.07400148	      0.69266373	      1.35990626	     12.93476756	      0.00000000	     58.03362027	    -24.40773172	    -15.68889482	     33.37279546	     -0.05312860	      1.26196439	      0.58246516	     -0.66194486	     15.62942717	      0.00000000
      3.33500000	      0.06442951	    -30.94200838	      4.70104156	      0.06059746	      0.80144009	     -1.17288128	     59.79436949	    -34.96720125	    -21.82261247	     39.62750164	     -0.14065762	      3.33579161	      0.69163038	      1.62114186	     13.11363004	      0.00000000	     55.90311744	    -23.56237010	    -16.95428489	     32.92195750	     -0.62797415	      0.14664963	      0.57459655	     -0.60243803	     15.71717396	      0.00000000
